<svg width="148" height="97" viewBox="0 0 148 97" fill="none" xmlns="http://www.w3.org/2000/svg">
<path d="M24.6861 35.6656L16.8823 48.0915L25.7769 60.8944H3.75422V35.6656H24.6861ZM31.3913 32H0V64.56H32.863L28.886 58.8378L21.3516 47.9904L27.8859 37.5831L31.3913 32Z" fill="#FFC72C"/>
<path d="M58.2072 54.1299L60.1218 52.01C60.3519 52.5769 60.7613 53.0572 61.2903 53.3811C61.8312 53.7192 62.4617 53.8951 63.1039 53.8871C63.7894 53.924 64.4665 53.7263 65.0186 53.328C65.2505 53.1473 65.4353 52.9156 65.5577 52.6518C65.6802 52.3879 65.737 52.0995 65.7233 51.8102C65.7233 51.0631 64.9418 50.321 63.3786 49.584C62.8734 49.3488 62.4718 49.154 62.179 49.0047C60.7695 48.2863 59.7928 47.5855 59.2487 46.9025C58.7012 46.2008 58.4143 45.3382 58.4352 44.4563C58.4238 43.8393 58.5609 43.2284 58.8354 42.6726C59.1099 42.1168 59.5141 41.6317 60.0156 41.2562C61.0675 40.413 62.4346 39.9913 64.117 39.9913C64.9874 39.9711 65.8511 40.1441 66.6431 40.4973C67.3897 40.8621 68.0343 41.3986 68.5215 42.0606L66.4851 43.9655C66.273 43.5389 65.9381 43.1819 65.5213 42.9385C65.0781 42.7014 64.578 42.5844 64.0729 42.5995C63.4783 42.5741 62.8934 42.7532 62.42 43.1054C62.3956 43.1263 62.373 43.1491 62.3526 43.1737C61.1936 44.4976 61.837 45.6672 64.2828 46.6824C64.6119 46.8165 64.8658 46.9354 65.0419 47.0037C66.4065 47.6142 67.4178 48.3023 68.0759 49.068C68.7178 49.7976 69.0675 50.7294 69.0604 51.6913C69.0604 53.1686 68.5422 54.3492 67.5059 55.2329C66.4695 56.1166 65.0877 56.5559 63.3604 56.5509C62.2689 56.5791 61.1848 56.3664 60.1892 55.9285C59.3473 55.5531 58.6521 54.9223 58.2072 54.1299Z" fill="white"/>
<path d="M41.6513 56.1285V40.3885H45.0972V47.5173L50.4707 40.3885H54.4504L48.6778 47.5603L56.7355 59.0857H52.5901L45.0972 47.8942V56.1285H41.6513Z" fill="white"/>
<path d="M86.3469 56.1285V40.3885H89.7928V46.7128H96.7883V40.3885H100.234V56.1285H96.7857V49.5512H89.7902V56.1285H86.3469Z" fill="white"/>
<path d="M118.907 48.2913C118.914 49.3868 118.695 50.4724 118.264 51.4838C117.838 52.4807 117.207 53.3814 116.409 54.1299C115.591 54.8986 114.629 55.5082 113.577 55.926C112.543 56.3382 111.436 56.5496 110.318 56.5483C109.333 56.5484 108.356 56.3832 107.429 56.0601C106.491 55.7367 105.615 55.2621 104.838 54.6561C103.85 53.8997 103.052 52.9322 102.506 51.8279C101.963 50.7232 101.685 49.5117 101.695 48.2862C101.687 47.1925 101.905 46.1084 102.335 45.0988C102.763 44.1014 103.396 43.2006 104.196 42.4527C105.006 41.6851 105.962 41.0793 107.009 40.6693C108.056 40.2496 109.176 40.0339 110.308 40.0343C111.432 40.0334 112.546 40.2492 113.585 40.6693C114.631 41.083 115.586 41.6883 116.399 42.4527C117.198 43.205 117.831 44.1089 118.259 45.1089C118.69 46.117 118.91 47.199 118.907 48.2913ZM110.318 53.5481C110.998 53.5683 111.674 53.4447 112.3 53.1858C112.926 52.9268 113.487 52.5387 113.945 52.0479C114.905 51.0257 115.417 49.6775 115.373 48.2913C115.411 46.9012 114.893 45.5512 113.93 44.5271C113.477 44.0356 112.921 43.6455 112.299 43.3836C111.677 43.1216 111.005 42.9939 110.328 43.0093C109.648 42.9927 108.971 43.1198 108.345 43.3817C107.719 43.6437 107.158 44.0343 106.701 44.5271C105.734 45.5513 105.216 46.9041 105.258 48.2964C105.258 49.8142 105.731 51.0706 106.678 52.0656C107.141 52.5516 107.706 52.9353 108.334 53.191C108.962 53.4466 109.638 53.5684 110.318 53.5481Z" fill="white"/>
<path d="M137.585 48.2913C137.591 49.3869 137.371 50.4726 136.939 51.4838C136.514 52.4812 135.883 53.382 135.084 54.1299C134.267 54.8986 133.306 55.5081 132.255 55.926C131.22 56.3377 130.113 56.549 128.996 56.5483C128.01 56.5486 127.032 56.3835 126.104 56.0601C125.167 55.7362 124.291 55.2616 123.513 54.6561C122.525 53.8997 121.727 52.9322 121.182 51.8279C120.64 50.7226 120.364 49.5114 120.373 48.2862C120.365 47.1928 120.582 46.109 121.011 45.0988C121.44 44.0981 122.078 43.1953 122.884 42.4477C123.694 41.6805 124.651 41.0762 125.7 40.6693C126.746 40.2491 127.867 40.0333 128.998 40.0343C130.122 40.0338 131.235 40.2495 132.273 40.6693C133.319 41.083 134.274 41.6883 135.087 42.4527C135.886 43.205 136.519 44.1089 136.947 45.1089C137.376 46.1173 137.593 47.1995 137.585 48.2913ZM128.996 53.5481C129.675 53.568 130.351 53.4442 130.977 53.1853C131.603 52.9264 132.165 52.5384 132.623 52.0479C133.582 51.0253 134.093 49.6771 134.048 48.2913C134.087 46.9009 133.57 45.5505 132.605 44.5271C132.152 44.0358 131.597 43.6458 130.976 43.3839C130.354 43.1219 129.683 42.9941 129.006 43.0093C128.325 42.9931 127.649 43.1203 127.023 43.3822C126.397 43.6441 125.836 44.0346 125.379 44.5271C124.413 45.5519 123.895 46.9043 123.936 48.2964C123.936 49.8142 124.409 51.0706 125.356 52.0656C125.819 52.5515 126.384 52.9351 127.012 53.1907C127.639 53.4464 128.316 53.5682 128.996 53.5481Z" fill="white"/>
<path d="M139.048 56.1285V40.3885H142.494V53.2699H148V56.1285H139.048Z" fill="white"/>
<path d="M84.1524 51.8633C83.5131 52.4402 82.7699 52.8965 81.9605 53.2091C81.1338 53.5188 80.255 53.6741 79.3696 53.667C77.7339 53.667 76.4384 53.1813 75.4833 52.2099C74.5281 51.2385 74.0548 49.9247 74.0635 48.2686C74.0635 46.5821 74.5739 45.2329 75.5947 44.2211C76.6155 43.2092 77.9843 42.7074 79.7012 42.7159C80.5076 42.7105 81.3077 42.8547 82.059 43.1409C82.8286 43.4516 83.537 43.8907 84.1524 44.4386V41.0285C83.436 40.6986 82.6856 40.4442 81.9139 40.2696C81.0827 40.0899 80.2339 40 79.3826 40.0015C76.7761 40.0015 74.6473 40.779 72.996 42.3339C71.3447 43.8888 70.5174 45.8671 70.5139 48.2686C70.5139 50.6718 71.3378 52.6526 72.9856 54.2109C74.6334 55.7692 76.7459 56.5484 79.323 56.5484C80.1796 56.5524 81.0331 56.4478 81.8621 56.2372C82.6685 56.0276 83.4418 55.7109 84.1602 55.2962L84.1524 51.8633Z" fill="white"/>
</svg>
