<svg width="141" height="26" viewBox="0 0 141 26" fill="none" xmlns="http://www.w3.org/2000/svg">
<path d="M4.802 18.7799H0.994V8.97991H4.62C6.454 8.97991 7.644 9.88991 7.644 11.4999C7.644 12.4099 7.014 13.1379 6.384 13.4179C7.35 13.7679 8.092 14.5659 8.092 15.9099C8.092 17.6879 6.832 18.7799 4.802 18.7799ZM2.436 10.1979V12.9419H4.55C5.642 12.9419 6.23 12.4799 6.23 11.5699C6.23 10.6739 5.642 10.1979 4.536 10.1979H2.436ZM2.436 14.2159V17.4919H4.606C5.978 17.4919 6.65 16.9179 6.65 15.8539C6.65 14.7899 5.978 14.2159 4.606 14.2159H2.436ZM14.4953 11.7239H15.8952L13.4173 18.5279L12.3532 21.6359H11.0512L12.0033 18.8499L9.38525 11.7239H10.7852L12.6333 17.0159L14.4953 11.7239Z" fill="white"/>
<path fill-rule="evenodd" clip-rule="evenodd" d="M67.7777 7.57065C70.4026 7.5736 71.7335 7.62601 72.8414 8.03718C75.6346 9.06626 76.0272 11.178 76.0272 12.6201C76.0272 14.3919 75.4207 16.2724 73.1365 16.9695L76.4935 23.0835H78.5337V25.617C77.7247 25.668 77.2137 25.7169 76.6756 25.7571C76.1386 25.803 75.7088 25.8266 75.3873 25.8266C74.7272 25.8266 74.2335 25.7218 73.9071 25.5084C73.5762 25.3014 73.2819 24.9386 73.0257 24.4149L69.4998 17.5983H67.5866V21.608H63.9177V10.3211H62.3612V7.5705L67.7777 7.57065ZM34.3871 7.50731C35.2133 7.50731 35.775 7.67447 36.0754 8.00678C36.3755 8.34181 36.5167 8.88998 36.5167 9.65281V18.802H38.1523V21.2899C38.1523 21.2899 36.1678 21.5794 34.9866 21.5794C34.351 21.5794 33.8782 21.4814 33.5604 21.2899C33.2446 21.1011 33.0329 20.7955 32.9265 20.3766C32.3455 20.8342 30.8567 21.8727 29.0377 21.8727C27.855 21.8727 26.5725 21.5141 25.6132 20.5479C25.2482 20.177 24.6362 19.1495 24.6362 17.1402V10.2824H23V7.76593C23.5114 7.68704 24.0733 7.62738 24.6919 7.57798C25.3033 7.52842 25.7974 7.50731 26.1679 7.50731C26.9949 7.50731 27.5578 7.67447 27.8592 8.00678C28.1567 8.34181 28.3061 8.88998 28.3061 9.65281V16.5968C28.3061 17.2265 28.41 17.7394 28.7284 17.997C29.5265 18.6475 31.188 18.4043 31.6192 18.3547C32.0516 18.3091 32.4619 18.2389 32.8482 18.1416V10.2824H31.2174V7.76593C31.7305 7.68704 32.2924 7.62738 32.9078 7.57798C33.5234 7.52842 34.0182 7.50731 34.3871 7.50731ZM58.0284 7.50731C58.8748 7.50731 59.4418 7.67447 59.7434 8.00678C60.0451 8.34181 60.1917 8.89072 60.1917 9.65281V21.6089H56.5228V10.2831H54.7813V7.79186C55.0417 7.7542 55.3247 7.72234 55.6273 7.69154C55.6273 7.69154 57.2643 7.50731 58.0284 7.50731ZM48.4877 7.22044C51.4685 7.22044 52.473 9.60418 52.473 11.9435V18.802H54.0726V21.2899C54.0726 21.2899 52.6604 21.4763 52.3814 21.5075C52.1002 21.5334 51.8256 21.5534 51.5646 21.5651C51.3247 21.5717 51.1319 21.5751 50.9669 21.5794H50.9049C50.8676 21.5794 50.8346 21.5736 50.7971 21.5736C50.7302 21.5717 50.665 21.5711 50.5995 21.5651C50.3473 21.5519 50.1255 21.5184 49.9342 21.4678C49.9164 21.4644 49.905 21.4603 49.8898 21.4552C49.7345 21.414 49.4352 21.2967 49.2513 21.0901C48.949 20.7507 48.8055 20.1929 48.8055 19.4282V12.4866C48.8055 11.8395 48.6629 11.3695 48.3799 11.0843C48.2045 10.9128 47.9754 10.7926 47.696 10.7414C46.0421 10.4345 44.5803 10.8473 44.21 10.9439V21.4612H40.5385V10.2824H38.7197V7.79133C39.2299 7.69696 40.9657 7.50731 42.019 7.50731C42.6705 7.50731 43.1596 7.60234 43.4869 7.79133C43.8106 7.9827 44.0346 8.28039 44.1563 8.68075C45.697 7.32042 47.714 7.22044 48.4877 7.22044ZM69.6118 10.2438H67.5866V14.9845H69.7558C71.6481 14.9845 72.365 13.6825 72.365 12.5688C72.365 11.5064 72.0747 10.2438 69.6118 10.2438ZM57.7909 0.799194C58.4026 0.799194 58.8697 0.944383 59.1741 1.22804C59.4668 1.50855 59.6175 1.99034 59.6175 2.66518V3.0469C59.6175 3.72261 59.4706 4.19856 59.1741 4.46893C58.8697 4.74319 58.4048 4.88356 57.7909 4.88356H57.5979C56.9712 4.88356 56.4993 4.74608 56.207 4.47076C55.9181 4.20121 55.7697 3.72174 55.7697 3.0469V2.66518C55.7697 1.99366 55.9181 1.50855 56.207 1.22804C56.5053 0.943429 56.9734 0.799194 57.5979 0.799194H57.7909Z" fill="white"/>
<path d="M82.2313 13.0118H85.5105V12.2965H82.9978V7.56939H82.2313V13.0118ZM89.8453 13.0118H90.641L88.6148 7.56939H87.9073L85.8809 13.0118H86.6695L87.163 11.6279H89.3516L89.8453 13.0118ZM87.4211 10.9204L88.261 8.58013L89.101 10.9204H87.4211ZM95.2365 13.074C96.4227 13.074 97.2186 12.3509 97.2186 11.107V7.56939H96.4817V11.1303C96.4817 11.9078 95.9808 12.3509 95.2365 12.3509C94.4996 12.3509 93.9985 11.9078 93.9985 11.1303V7.56939H93.2616V11.107C93.2616 12.3509 94.0575 13.074 95.2365 13.074ZM98.3923 13.0118H99.1588V8.82893L101.649 13.0118H102.497V7.56939H101.73V11.76L99.2472 7.56939H98.3923V13.0118ZM103.766 13.0118H104.532V7.56939H103.766V13.0118ZM107.252 13.0118H108.011L109.934 7.56939H109.16L107.627 12.0399L106.102 7.56939H105.328L107.252 13.0118ZM110.727 13.0118H114.117V12.2965H111.494V10.5627H113.549V9.84743H111.494V8.28468H114.036V7.56939H110.727V13.0118ZM118.091 10.4306C118.547 10.1895 118.849 9.78524 118.849 9.20211C118.849 8.23027 118.216 7.56939 117.177 7.56939H115.158V13.0118H115.924V10.8659H117.214C117.656 10.8659 117.958 11.208 117.995 11.6901L118.098 13.0118H118.842L118.739 11.6201C118.71 11.0914 118.466 10.6638 118.091 10.4306ZM115.924 8.26914H117.155C117.825 8.26914 118.083 8.70453 118.083 9.20211C118.083 9.69193 117.825 10.1507 117.155 10.1507H115.924V8.26914ZM121.751 13.074C122.856 13.074 123.652 12.4909 123.652 11.4957C123.652 9.41982 120.712 10.2984 120.712 8.97665C120.712 8.51792 121.087 8.22249 121.706 8.22249C122.34 8.22249 122.753 8.58791 122.804 9.1477H123.549C123.482 8.15252 122.76 7.5072 121.706 7.5072C120.667 7.5072 119.945 8.10587 119.945 8.97665C119.945 10.9826 122.871 10.1973 122.871 11.5035C122.871 12.0944 122.399 12.3587 121.751 12.3587C121.021 12.3587 120.586 11.9078 120.527 11.208H119.783C119.842 12.3354 120.586 13.074 121.751 13.074ZM124.645 13.0118H125.411V7.56939H124.645V13.0118ZM126.68 13.0118H128.264C129.701 13.0118 130.865 12.0633 130.865 10.2906C130.865 8.51792 129.701 7.56939 128.264 7.56939H126.68V13.0118ZM127.446 12.2965V8.28468H128.22C129.177 8.28468 130.076 8.85225 130.076 10.2906C130.076 11.7289 129.177 12.2965 128.22 12.2965H127.446ZM135.2 13.0118H135.996L133.969 7.56939H133.262L131.236 13.0118H132.024L132.518 11.6279H134.706L135.2 13.0118ZM132.776 10.9204L133.616 8.58013L134.456 10.9204H132.776ZM136.764 13.0118H138.348C139.785 13.0118 140.949 12.0633 140.949 10.2906C140.949 8.51792 139.785 7.56939 138.348 7.56939H136.764V13.0118ZM137.53 12.2965V8.28468H138.304C139.262 8.28468 140.161 8.85225 140.161 10.2906C140.161 11.7289 139.262 12.2965 138.304 12.2965H137.53ZM82.2313 21.5135H85.6209V20.7981H82.9978V19.0644H85.0536V18.3491H82.9978V16.7863H85.5399V16.071H82.2313V21.5135ZM86.6621 21.5135H87.4283V17.3306L89.9188 21.5135H90.7663V16.071H90V20.2617L87.5168 16.071H86.6621V21.5135ZM93.9546 21.5135H94.7208V16.071H93.9546V21.5135ZM95.989 21.5135H96.7553V17.3306L99.2458 21.5135H100.093V16.071H99.327V20.2617L96.8437 16.071H95.989V21.5135ZM102.534 21.5135H103.3V16.7863H104.914V16.071H100.92V16.7863H102.534V21.5135ZM105.685 21.5135H109.075V20.7981H106.451V19.0644H108.507V18.3491H106.451V16.7863H108.993V16.071H105.685V21.5135ZM113.048 18.9322C113.505 18.6912 113.807 18.2869 113.807 17.7038C113.807 16.7319 113.174 16.071 112.135 16.071H110.116V21.5135H110.882V19.3676H112.171C112.614 19.3676 112.916 19.7097 112.953 20.1917L113.056 21.5135H113.8L113.697 20.1217C113.667 19.593 113.424 19.1654 113.048 18.9322ZM110.882 16.7708H112.112C112.783 16.7708 113.041 17.2062 113.041 17.7038C113.041 18.1936 112.783 18.6523 112.112 18.6523H110.882V16.7708ZM115.151 21.5135H115.917V17.3306L118.408 21.5135H119.255V16.071H118.489V20.2617L116.005 16.071H115.151V21.5135ZM120.524 21.5135H123.914V20.7981H121.29V19.0644H123.346V18.3491H121.29V16.7863H123.832V16.071H120.524V21.5135ZM126.126 21.5135H126.893V16.7863H128.506V16.071H124.512V16.7863H126.126V21.5135Z" fill="white"/>
</svg>
