<svg width="24" height="25" viewBox="0 0 24 25" fill="none" xmlns="http://www.w3.org/2000/svg">
<path d="M21.6487 20.155C20.2209 17.6866 18.0206 15.9166 15.4528 15.0775C16.7229 14.3214 17.7098 13.1692 18.2617 11.7979C18.8137 10.4267 18.9003 8.91214 18.5082 7.48691C18.116 6.06168 17.2669 4.80457 16.0912 3.90863C14.9155 3.01269 13.4782 2.52747 12 2.52747C10.5218 2.52747 9.08448 3.01269 7.90875 3.90863C6.73303 4.80457 5.88391 6.06168 5.4918 7.48691C5.09968 8.91214 5.18626 10.4267 5.73822 11.7979C6.29018 13.1692 7.27701 14.3214 8.54717 15.0775C5.97935 15.9156 3.77904 17.6856 2.35123 20.155C2.29887 20.2404 2.26414 20.3354 2.24909 20.4344C2.23404 20.5334 2.23897 20.6345 2.2636 20.7315C2.28822 20.8286 2.33204 20.9198 2.39247 20.9996C2.4529 21.0795 2.52871 21.1465 2.61544 21.1966C2.70217 21.2467 2.79805 21.2789 2.89742 21.2913C2.9968 21.3037 3.09767 21.2962 3.19406 21.269C3.29046 21.2418 3.38044 21.1956 3.45869 21.1331C3.53694 21.0706 3.60187 20.993 3.64967 20.905C5.41592 17.8525 8.53779 16.03 12 16.03C15.4622 16.03 18.584 17.8525 20.3503 20.905C20.3981 20.993 20.463 21.0706 20.5413 21.1331C20.6195 21.1956 20.7095 21.2418 20.8059 21.269C20.9023 21.2962 21.0032 21.3037 21.1025 21.2913C21.2019 21.2789 21.2978 21.2467 21.3845 21.1966C21.4712 21.1465 21.5471 21.0795 21.6075 20.9996C21.6679 20.9198 21.7117 20.8286 21.7364 20.7315C21.761 20.6345 21.7659 20.5334 21.7509 20.4344C21.7358 20.3354 21.7011 20.2404 21.6487 20.155ZM6.74998 9.28002C6.74998 8.24166 7.05789 7.22663 7.63476 6.36327C8.21164 5.49991 9.03158 4.82701 9.99089 4.42965C10.9502 4.03229 12.0058 3.92832 13.0242 4.13089C14.0426 4.33347 14.9781 4.83348 15.7123 5.56771C16.4465 6.30193 16.9465 7.23739 17.1491 8.25579C17.3517 9.27419 17.2477 10.3298 16.8503 11.2891C16.453 12.2484 15.7801 13.0684 14.9167 13.6452C14.0534 14.2221 13.0383 14.53 12 14.53C10.608 14.5285 9.27356 13.9749 8.28931 12.9907C7.30507 12.0064 6.75147 10.6719 6.74998 9.28002Z" fill="white"/>
</svg>
